<?xml version="1.0" encoding="UTF-8"?>
<!DOCTYPE svg PUBLIC "-//W3C//DTD SVG 1.1//EN" "http://www.w3.org/Graphics/SVG/1.1/DTD/svg11.dtd">
<!-- Creator: CorelDRAW 2017 -->
<svg xmlns="http://www.w3.org/2000/svg" xml:space="preserve" width="210mm" height="297mm" version="1.1" style="shape-rendering:geometricPrecision; text-rendering:geometricPrecision; image-rendering:optimizeQuality; fill-rule:evenodd; clip-rule:evenodd"
viewBox="0 0 21000 29700"
 xmlns:xlink="http://www.w3.org/1999/xlink">
 <defs>
  <style type="text/css">
   <![CDATA[
    .str0 {stroke:black;stroke-width:500;stroke-miterlimit:22.9256}
    .fil0 {fill:none}
   ]]>
  </style>
 </defs>
 <g id="Слой_x0020_1">
  <metadata id="CorelCorpID_0Corel-Layer"/>
  <path class="fil0 str0" d="M18136.27 8033.87l0 11484.26 -3163.95 -3163.95 -2577.3 -2577.3 -1918.82 -1890.4 0 0 -7652.27 7631.65 0 -11484.26m3823.64 3825.72l1918.56 1918.56 1905.32 1905.31 5.8 5.53 0 0c640.49,-640.49 1278.75,-1274.81 1919.15,-1915.19 638.24,-638.24 1276.73,-1276.72 1915.06,-1915.08m1064.92 -2831.73l4663.37 4663.38c-272.25,272.25 -544.51,544.52 -816.76,816.78m-6106.41 6106.39c-937.77,937.77 -1784.37,1784.37 -2722.11,2722.11l-2708.15 -2708.14m-6284.32 -6179.28l-647.52 -647.52 4820.2 -4820.19m8733.51 -2860.69l0 15312.35m-7656.18 0l0 -15312.35m3924.31 -1914.04l-1914.04 1914.04 1914.04 1914.04 1914.04 -1914.04 -1914.04 -1914.04z"/>
 </g>
</svg>
